<?xml version="1.0" encoding="UTF-8"?>
<!DOCTYPE svg PUBLIC "-//W3C//DTD SVG 1.1//EN" "http://www.w3.org/Graphics/SVG/1.1/DTD/svg11.dtd">
<svg xmlns="http://www.w3.org/2000/svg" version="1.1" width="517px" height="375px" style="shape-rendering:geometricPrecision; text-rendering:geometricPrecision; image-rendering:optimizeQuality; fill-rule:evenodd; clip-rule:evenodd" xmlns:xlink="http://www.w3.org/1999/xlink">
<g><path style="opacity:1" fill="#fefefe" d="M -0.5,-0.5 C 171.833,-0.5 344.167,-0.5 516.5,-0.5C 516.5,124.5 516.5,249.5 516.5,374.5C 344.167,374.5 171.833,374.5 -0.5,374.5C -0.5,249.5 -0.5,124.5 -0.5,-0.5 Z"/></g>
<g><path style="opacity:1" fill="#c1c1c1" d="M 246.5,7.5 C 262.984,5.48838 277.151,10.155 289,21.5C 289.667,22.8333 289.667,24.1667 289,25.5C 286.936,26.5914 284.769,26.7581 282.5,26C 264.717,11.3392 246.384,10.6725 227.5,24C 215.654,34.8632 210.487,48.3632 212,64.5C 210.186,65.7596 208.353,65.7596 206.5,64.5C 203.606,51.8614 205.773,40.1947 213,29.5C 221.202,17.4328 232.369,10.0995 246.5,7.5 Z"/></g>
<g><path style="opacity:1" fill="#c0c0c0" d="M 405.5,17.5 C 411.477,16.8354 417.477,16.502 423.5,16.5C 436.628,19.1512 446.795,26.1512 454,37.5C 454.384,40.0602 455.217,42.3936 456.5,44.5C 457.993,51.4096 458.659,58.4096 458.5,65.5C 455.541,76.3026 449.874,85.4692 441.5,93C 443.2,96.2324 445.034,99.399 447,102.5C 447.667,104.167 447.667,105.833 447,107.5C 444.079,109.712 440.912,111.545 437.5,113C 430.718,114.598 423.884,115.764 417,116.5C 410.17,118.311 407.337,115.977 408.5,109.5C 417.628,108.868 426.628,107.368 435.5,105C 437.82,103.512 437.987,101.679 436,99.5C 435.196,98.1955 434.029,97.5288 432.5,97.5C 405.153,105.315 386.319,95.9812 376,69.5C 371.917,50.849 377.084,35.349 391.5,23C 390.666,18.4349 388.332,17.1016 384.5,19C 364.091,38.9806 360.925,61.4806 375,86.5C 377.295,89.7974 379.962,92.7974 383,95.5C 383.435,101.376 380.935,102.876 375.5,100C 366.756,90.3493 361.423,79.1826 359.5,66.5C 359.309,58.7989 359.642,51.1322 360.5,43.5C 364.149,28.0509 372.816,16.2176 386.5,8C 388.167,7.33333 389.833,7.33333 391.5,8C 394.709,11.597 397.542,15.4303 400,19.5C 401.567,18.1439 403.4,17.4772 405.5,17.5 Z"/></g>
<g><path style="opacity:1" fill="#dddddd" d="M 423.5,16.5 C 417.477,16.502 411.477,16.8354 405.5,17.5C 409.072,16.0973 412.905,15.4307 417,15.5C 419.361,15.5039 421.527,15.8373 423.5,16.5 Z"/></g>
<g><path style="opacity:1" fill="#dedede" d="M 422.5,24.5 C 420.265,24.2053 418.265,24.5386 416.5,25.5C 415.957,25.44 415.624,25.1067 415.5,24.5C 417.973,23.2031 420.307,23.2031 422.5,24.5 Z"/></g>
<g><path style="opacity:1" fill="#f8f8f8" d="M 416.5,25.5 C 418.265,24.5386 420.265,24.2053 422.5,24.5C 426.07,25.2456 429.404,26.5789 432.5,28.5C 430.424,30.2877 428.257,31.9544 426,33.5C 423.253,30.2463 420.086,27.5797 416.5,25.5 Z"/></g>
<g><path style="opacity:1" fill="#c1c1c1" d="M 104.5,25.5 C 109.599,25.9389 114.599,26.1056 119.5,26C 120.43,27.1939 121.097,28.5272 121.5,30C 118.75,33.0275 116.75,36.5275 115.5,40.5C 112.553,42.4534 109.886,44.6201 107.5,47C 113.219,56.0583 119.719,64.5583 127,72.5C 127.667,75.1667 127.667,77.8333 127,80.5C 125,86.5 123,92.5 121,98.5C 118.367,103.067 114.533,104.567 109.5,103C 106.833,101 106.833,99 109.5,97C 111.433,96.7489 113.266,96.2489 115,95.5C 118.049,88.6998 120.049,81.6998 121,74.5C 113.359,67.1977 106.859,59.031 101.5,50C 98.7083,50.9699 95.875,52.1365 93,53.5C 89.0646,52.6894 88.5646,50.856 91.5,48C 97.6697,44.0808 104.003,40.4141 110.5,37C 111.833,35.3333 111.833,33.6667 110.5,32C 107.581,31.4484 104.914,32.1151 102.5,34C 82.9967,45.586 63.33,56.9194 43.5,68C 37.359,73.4041 38.359,75.4041 46.5,74C 50.0364,71.6341 53.703,69.4674 57.5,67.5C 60.298,62.4317 64.6313,59.9317 70.5,60C 73.8536,57.9682 77.1869,55.9682 80.5,54C 84.6667,52.8333 86.1667,54.3333 85,58.5C 82.586,60.2907 80.086,61.9574 77.5,63.5C 82.5993,68.5159 88.266,69.5159 94.5,66.5C 98.7345,69.9905 98.0678,72.4905 92.5,74C 89.5,74.6667 86.5,74.6667 83.5,74C 78.351,71.3414 73.1843,68.8414 68,66.5C 66.8926,66.5852 65.8926,66.9186 65,67.5C 64.3333,69.5 64.3333,71.5 65,73.5C 70.5,79 76,84.5 81.5,90C 85.7777,92.8078 90.4444,94.4745 95.5,95C 96.8333,96.6667 96.8333,98.3333 95.5,100C 88.8801,100.697 82.8801,99.0305 77.5,95C 71.6667,89.1667 65.8333,83.3333 60,77.5C 59.5172,76.552 59.3505,75.552 59.5,74.5C 55.5876,75.7895 51.9209,77.6229 48.5,80C 42.5837,80.8072 36.7504,80.6406 31,79.5C 30.3333,78.1667 30.3333,76.8333 31,75.5C 33.4646,70.7306 36.2979,66.2306 39.5,62C 38.4641,58.8792 38.2974,55.7125 39,52.5C 46.2705,46.5781 54.1038,41.4114 62.5,37C 71.0912,35.7559 79.7579,35.0892 88.5,35C 94.0293,32.0724 99.3627,28.9057 104.5,25.5 Z"/></g>
<g><path style="opacity:1" fill="#fcfcfc" d="M 400.5,27.5 C 407.257,28.4205 412.924,31.4205 417.5,36.5C 412.467,40.7736 406.967,44.4403 401,47.5C 399.928,50.5527 400.928,52.5527 404,53.5C 416.052,47.8932 427.552,41.3932 438.5,34C 443.542,36.0557 447.042,39.889 449,45.5C 449.667,47.1667 449.667,48.8333 449,50.5C 446.543,51.9778 444.043,53.3112 441.5,54.5C 433.895,50.3975 431.229,52.3975 433.5,60.5C 426.103,64.0282 418.769,67.8616 411.5,72C 410.5,72.6667 409.5,72.6667 408.5,72C 399.624,60.3332 395.458,47.1665 396,32.5C 397.025,30.313 398.525,28.6464 400.5,27.5 Z"/></g>
<g><path style="opacity:1" fill="#c1c1c1" d="M 253.5,58.5 C 254.274,59.1471 255.274,59.4805 256.5,59.5C 261.698,58.8048 266.698,57.8048 271.5,56.5C 272.552,56.6495 273.552,56.4828 274.5,56C 269.5,51.6667 264.5,47.3333 259.5,43C 256.641,42.447 253.808,42.6137 251,43.5C 246.245,42.3132 245.411,39.8132 248.5,36C 254.549,33.5086 260.216,34.1753 265.5,38C 272.333,44.1667 279.167,50.3333 286,56.5C 286.667,58.8333 286.667,61.1667 286,63.5C 285.117,67.6201 283.617,71.4534 281.5,75C 279.299,75.8249 277.466,75.3249 276,73.5C 276.742,70.2899 277.242,66.9566 277.5,63.5C 275.833,63.5 274.167,63.5 272.5,63.5C 271.706,77.9309 264.039,83.7642 249.5,81C 240.72,79.2114 234.72,74.2114 231.5,66C 232.598,61.7926 233.431,57.626 234,53.5C 230.631,50.4263 227.465,47.2596 224.5,44C 225.154,42.013 226.487,40.6797 228.5,40C 231.5,39.3333 234.5,39.3333 237.5,40C 238.061,42.5176 238.394,45.0176 238.5,47.5C 243.256,51.6023 248.256,55.2689 253.5,58.5 Z"/></g>
<g><path style="opacity:1" fill="#c1c1c1" d="M 295.5,63.5 C 296.164,61.1903 296.497,58.6903 296.5,56C 296.696,52.1952 296.03,48.6952 294.5,45.5C 293.321,42.6291 293.321,39.7957 294.5,37C 299.071,36.5609 301.571,38.7276 302,43.5C 306.992,74.1764 294.825,94.6764 265.5,105C 246.814,108.225 230.981,103.058 218,89.5C 216.417,84.8996 217.917,83.0663 222.5,84C 235.567,97.8505 251.234,101.85 269.5,96C 283.555,89.4484 292.221,78.6151 295.5,63.5 Z"/></g>
<g><path style="opacity:1" fill="#f9f9f9" d="M 67.5,41.5 C 70.5184,41.3354 73.5184,41.502 76.5,42C 66.2518,47.7069 56.0851,53.5403 46,59.5C 44.3676,57.9732 44.2009,56.3066 45.5,54.5C 52.8728,50.1041 60.2061,45.7707 67.5,41.5 Z"/></g>
<g><path style="opacity:1" fill="#fbfbfb" d="M 386.5,41.5 C 389.25,54.1488 394.25,65.9822 401.5,77C 398.944,79.2154 396.111,81.0487 393,82.5C 383.469,73.5601 380.135,62.5601 383,49.5C 383.872,46.6388 385.038,43.9721 386.5,41.5 Z"/></g>
<g><path style="opacity:1" fill="#e7e7e7" d="M 294.5,45.5 C 296.03,48.6952 296.696,52.1952 296.5,56C 296.497,58.6903 296.164,61.1903 295.5,63.5C 295.64,57.4638 295.307,51.4638 294.5,45.5 Z"/></g>
<g><path style="opacity:1" fill="#e0e0e0" d="M 271.5,56.5 C 266.698,57.8048 261.698,58.8048 256.5,59.5C 255.274,59.4805 254.274,59.1471 253.5,58.5C 259.474,57.6155 265.474,56.9488 271.5,56.5 Z"/></g>
<g><path style="opacity:1" fill="#d1d1d1" d="M 360.5,43.5 C 359.642,51.1322 359.309,58.7989 359.5,66.5C 358.346,60.013 358.179,53.3464 359,46.5C 359.232,45.2625 359.732,44.2625 360.5,43.5 Z"/></g>
<g><path style="opacity:1" fill="#e1e1e1" d="M 456.5,44.5 C 458.011,46.4758 458.844,48.8091 459,51.5C 459.815,56.3522 459.648,61.0189 458.5,65.5C 458.659,58.4096 457.993,51.4096 456.5,44.5 Z"/></g>
<g><path style="opacity:1" fill="#fbfbfb" d="M 240.5,59.5 C 244.202,61.0236 247.536,63.1903 250.5,66C 255.222,65.9853 259.889,66.1519 264.5,66.5C 264.198,72.5772 261.032,74.9105 255,73.5C 248.466,74.2212 243.466,71.8878 240,66.5C 239.666,64.1527 239.833,61.8194 240.5,59.5 Z"/></g>
<g><path style="opacity:1" fill="#f8f8f8" d="M 447.5,59.5 C 448.5,59.5 449.5,59.5 450.5,59.5C 450.854,65.4274 449.354,70.7607 446,75.5C 445.721,71.5411 444.887,67.7077 443.5,64C 444.604,62.2847 445.938,60.7847 447.5,59.5 Z"/></g>
<g><path style="opacity:1" fill="#fbfbfb" d="M 434.5,67.5 C 435.5,67.5 436.5,67.5 437.5,67.5C 437.666,72.8437 437.499,78.1771 437,83.5C 435.601,87.2377 432.934,88.9044 429,88.5C 423.042,87.7127 418.542,84.7127 415.5,79.5C 421.468,74.7819 427.801,70.7819 434.5,67.5 Z"/></g>
<g><path style="opacity:1" fill="#f7f7f7" d="M 403.5,84.5 C 405.199,84.3398 406.866,84.5065 408.5,85C 410.871,87.706 413.537,90.0394 416.5,92C 413.833,92.6667 411.167,92.6667 408.5,92C 406.285,90.9562 403.952,90.2895 401.5,90C 400.978,89.4387 400.645,88.772 400.5,88C 401.544,86.8261 402.544,85.6594 403.5,84.5 Z"/></g>
<g><path style="opacity:1" fill="#c0c0c0" d="M 161.5,104.5 C 164.518,104.335 167.518,104.502 170.5,105C 185.775,109.536 201.108,113.869 216.5,118C 219.308,118.598 221.808,119.765 224,121.5C 224.667,123.167 224.667,124.833 224,126.5C 219.696,140.052 215.862,153.719 212.5,167.5C 210.801,167.66 209.134,167.494 207.5,167C 206.941,166.275 206.608,165.442 206.5,164.5C 209.966,151.436 213.633,138.436 217.5,125.5C 200.433,120.2 183.266,115.2 166,110.5C 164.347,110.82 163.347,111.82 163,113.5C 160.869,121.559 158.536,129.559 156,137.5C 152.884,139.024 151.05,138.024 150.5,134.5C 152.696,125.745 155.196,117.079 158,108.5C 159.376,107.295 160.542,105.962 161.5,104.5 Z"/></g>
<g><path style="opacity:1" fill="#c1c1c1" d="M 172.5,124.5 C 181.626,125.926 190.626,128.093 199.5,131C 203.707,133.773 203.373,135.94 198.5,137.5C 190.862,135.232 183.196,133.065 175.5,131C 171.864,129.899 170.864,127.732 172.5,124.5 Z"/></g>
<g><path style="opacity:1" fill="#dddddd" d="M 291.5,134.5 C 288.763,134.401 286.096,134.735 283.5,135.5C 284.492,133.974 285.992,133.307 288,133.5C 289.385,133.514 290.551,133.848 291.5,134.5 Z"/></g>
<g><path style="opacity:1" fill="#c1c1c1" d="M 42.5,134.5 C 47.5111,134.334 52.5111,134.501 57.5,135C 61.5949,137.259 65.2616,140.093 68.5,143.5C 70.5993,148.023 69.266,149.857 64.5,149C 61.7974,145.962 58.7974,143.295 55.5,141C 42.4158,141.427 29.4158,142.927 16.5,145.5C 18.8167,148.317 21.3167,150.984 24,153.5C 24.7235,156.125 23.7235,157.792 21,158.5C 16.0115,154.18 11.0115,149.847 6,145.5C 5.13681,143.251 5.63681,141.418 7.5,140C 19.3498,138.423 31.0165,136.59 42.5,134.5 Z"/></g>
<g><path style="opacity:1" fill="#c0c0c0" d="M 291.5,134.5 C 301.438,137.104 311.438,139.604 321.5,142C 325.037,143.826 325.371,146.16 322.5,149C 311.045,147.95 299.878,145.45 289,141.5C 287.379,141.725 286.212,142.558 285.5,144C 277.848,170.943 270.515,197.943 263.5,225C 263.439,226.711 264.106,228.044 265.5,229C 269.425,230.584 273.425,231.917 277.5,233C 279.155,234.444 279.822,236.278 279.5,238.5C 277.236,239.219 274.903,239.552 272.5,239.5C 268.498,238.398 264.498,237.232 260.5,236C 258.011,233.023 256.345,229.689 255.5,226C 262.577,196.611 270.41,167.444 279,138.5C 280.129,136.859 281.629,135.859 283.5,135.5C 286.096,134.735 288.763,134.401 291.5,134.5 Z"/></g>
<g><path style="opacity:1" fill="#c1c1c1" d="M 169.5,136.5 C 174.898,137.516 180.231,138.85 185.5,140.5C 187.003,143.494 186.169,145.494 183,146.5C 178.416,145.23 173.916,143.73 169.5,142C 168.248,140.172 168.248,138.339 169.5,136.5 Z"/></g>
<g><path style="opacity:1" fill="#c1c1c1" d="M 333.5,145.5 C 335.903,145.393 337.736,146.393 339,148.5C 343.667,156.5 348.333,164.5 353,172.5C 354.552,174.768 355.385,177.268 355.5,180C 350.146,201.946 344.313,223.779 338,245.5C 335.594,250.575 331.594,253.242 326,253.5C 314.416,251.062 302.916,248.229 291.5,245C 287.086,244.252 285.586,241.752 287,237.5C 287.739,236.426 288.739,235.759 290,235.5C 300.798,238.577 311.631,241.744 322.5,245C 325.347,245.944 327.847,245.444 330,243.5C 335.816,222.9 341.316,202.233 346.5,181.5C 340.749,180.478 335.082,178.978 329.5,177C 327.959,175.421 326.792,173.587 326,171.5C 325.592,167.038 326.259,162.705 328,158.5C 329.176,153.781 331.009,149.448 333.5,145.5 Z"/></g>
<g><path style="opacity:1" fill="#c0c0c0" d="M 147.5,148.5 C 150.233,148.196 151.899,149.363 152.5,152C 150.09,157.015 149.09,162.181 149.5,167.5C 168.061,173.298 186.728,178.798 205.5,184C 206.097,185.062 206.43,186.228 206.5,187.5C 205.514,192.298 203.847,196.798 201.5,201C 199.5,201.667 197.5,201.667 195.5,201C 178.097,196.199 160.764,191.199 143.5,186C 140.41,183.984 138.743,181.151 138.5,177.5C 140.742,167.514 143.742,157.848 147.5,148.5 Z"/></g>
<g><path style="opacity:1" fill="#c1c1c1" d="M 11.5,187.5 C 11.8333,184.167 12.1667,180.833 12.5,177.5C 12.4258,173.842 13.9258,171.175 17,169.5C 20.5053,170.848 21.3386,173.181 19.5,176.5C 17.5185,179.373 17.1851,182.373 18.5,185.5C 26.2619,188.418 32.4286,193.418 37,200.5C 38.927,199.139 41.0937,198.306 43.5,198C 49.5275,197.83 55.5275,197.33 61.5,196.5C 64.1185,189.981 66.1185,183.315 67.5,176.5C 66.6667,176.167 65.8333,175.833 65,175.5C 57.2373,177.209 49.4039,177.709 41.5,177C 37.3333,173.5 33.1667,170 29,166.5C 27.8333,162.333 29.3333,160.833 33.5,162C 37.5393,166.226 42.206,169.392 47.5,171.5C 59.0283,169.972 70.5283,168.305 82,166.5C 82.5,166.167 83,165.833 83.5,165.5C 80.7488,163.753 78.7488,161.42 77.5,158.5C 78.0963,155.754 79.7629,154.92 82.5,156C 86.6175,159.15 90.4508,162.65 94,166.5C 92.0277,178.886 88.861,191.053 84.5,203C 86.6031,209.557 84.2698,212.557 77.5,212C 73.3569,208.584 73.5236,205.417 78,202.5C 81.4346,192.4 84.268,182.4 86.5,172.5C 82.3004,173.137 78.1337,173.804 74,174.5C 72.7499,185.018 69.5832,194.851 64.5,204C 57.8558,203.622 51.1891,203.622 44.5,204C 42.2746,204.561 40.2746,205.561 38.5,207C 36.8333,207.667 35.1667,207.667 33.5,207C 28.8932,198.395 21.8932,192.728 12.5,190C 11.7476,189.329 11.4142,188.496 11.5,187.5 Z"/></g>
<g><path style="opacity:1" fill="#f6f6f6" d="M 335.5,161.5 C 338.772,163.998 341.106,167.331 342.5,171.5C 342.167,171.833 341.833,172.167 341.5,172.5C 339.167,171.833 336.833,171.167 334.5,170.5C 334.167,169.833 333.833,169.167 333.5,168.5C 334.173,166.149 334.84,163.816 335.5,161.5 Z"/></g>
<g><path style="opacity:1" fill="#fbfbfb" d="M 145.5,174.5 C 163.134,178.617 180.634,183.284 198,188.5C 198.5,188.833 199,189.167 199.5,189.5C 198.691,191.071 198.357,192.738 198.5,194.5C 180.739,190.352 163.239,185.352 146,179.5C 145.506,177.866 145.34,176.199 145.5,174.5 Z"/></g>
<g><path style="opacity:1" fill="#e4e4e4" d="M 12.5,177.5 C 12.1667,180.833 11.8333,184.167 11.5,187.5C 10.1353,184.041 10.4686,180.708 12.5,177.5 Z"/></g>
<g><path style="opacity:1" fill="#e4e4e4" d="M 19.5,176.5 C 19.0371,179.482 18.7038,182.482 18.5,185.5C 17.1851,182.373 17.5185,179.373 19.5,176.5 Z"/></g>
<g><path style="opacity:1" fill="#c1c1c1" d="M 292.5,187.5 C 294.722,187.178 296.556,187.845 298,189.5C 300.193,201.097 301.526,212.763 302,224.5C 297.162,227.695 294.662,226.362 294.5,220.5C 290.145,219.661 285.811,218.661 281.5,217.5C 279.429,218.618 277.262,219.618 275,220.5C 272.942,219.942 271.775,218.609 271.5,216.5C 278.104,206.56 285.104,196.894 292.5,187.5 Z"/></g>
<g><path style="opacity:1" fill="#dadada" d="M 433.5,193.5 C 431.097,193.448 428.764,193.781 426.5,194.5C 427.312,193.007 428.645,192.34 430.5,192.5C 431.726,192.52 432.726,192.853 433.5,193.5 Z"/></g>
<g><path style="opacity:1" fill="#c0c0c0" d="M 433.5,193.5 C 439.388,194.532 444.888,196.532 450,199.5C 450.289,204.679 449.456,209.679 447.5,214.5C 451.233,214.87 454.899,215.537 458.5,216.5C 458.166,213.509 459.166,211.176 461.5,209.5C 463.5,209.167 465.5,208.833 467.5,208.5C 473.414,209.445 478.914,211.445 484,214.5C 484.667,217.5 484.667,220.5 484,223.5C 482.539,226.679 481.705,230.012 481.5,233.5C 485.514,233.334 489.514,233.501 493.5,234C 495.049,235.214 496.215,236.714 497,238.5C 497.667,245.5 497.667,252.5 497,259.5C 494.368,262.192 492.034,261.859 490,258.5C 489.501,252.843 489.334,247.176 489.5,241.5C 486.833,241.5 484.167,241.5 481.5,241.5C 480.844,242.622 480.511,243.955 480.5,245.5C 481.401,255.82 482.068,266.154 482.5,276.5C 484.735,276.795 486.735,276.461 488.5,275.5C 490.197,273.695 491.03,271.361 491,268.5C 493.333,265.833 495.667,265.833 498,268.5C 498.499,272.821 498.666,277.154 498.5,281.5C 505.387,281.553 507.887,284.887 506,291.5C 505.677,297.495 503.511,302.662 499.5,307C 493.103,307.887 490.103,311.721 490.5,318.5C 487.921,318.917 485.754,318.25 484,316.5C 483.563,312.377 484.063,308.377 485.5,304.5C 468.877,299.904 452.21,295.404 435.5,291C 429.836,290.458 428.169,287.625 430.5,282.5C 431.293,282.069 432.127,281.735 433,281.5C 453.03,287.607 473.197,293.274 493.5,298.5C 495.425,298.41 496.592,297.41 497,295.5C 497.311,293.444 497.811,291.444 498.5,289.5C 466.907,280.117 435.24,271.117 403.5,262.5C 402.5,262.833 401.5,263.167 400.5,263.5C 399.577,266.447 398.911,269.447 398.5,272.5C 404.228,273.68 409.895,275.18 415.5,277C 416.056,277.383 416.389,277.883 416.5,278.5C 416.938,282.908 414.938,284.575 410.5,283.5C 407.904,282.735 405.237,282.401 402.5,282.5C 402.196,285.522 401.696,288.522 401,291.5C 398.577,293.994 396.244,293.994 394,291.5C 393.41,287.703 393.91,284.036 395.5,280.5C 392.344,278.68 390.344,276.013 389.5,272.5C 391.288,267.255 392.788,261.922 394,256.5C 394.833,255.667 395.667,254.833 396.5,254C 400.741,254.246 404.908,254.08 409,253.5C 411.748,243.097 414.748,232.763 418,222.5C 421.739,220.525 423.906,221.525 424.5,225.5C 421.542,236.42 418.875,247.42 416.5,258.5C 420.082,259.266 423.582,259.266 427,258.5C 431.865,240.43 437.032,222.43 442.5,204.5C 439.019,202.87 435.352,201.87 431.5,201.5C 430.652,205.892 429.652,210.225 428.5,214.5C 426.703,215.73 424.703,216.396 422.5,216.5C 421.185,215.333 420.519,213.833 420.5,212C 422.034,205.895 424.034,200.062 426.5,194.5C 428.764,193.781 431.097,193.448 433.5,193.5 Z"/></g>
<g><path style="opacity:1" fill="#c1c1c1" d="M 322.5,198.5 C 324.144,198.286 325.644,198.62 327,199.5C 327.43,202.192 327.263,204.859 326.5,207.5C 331.355,206.964 333.521,208.964 333,213.5C 330.196,215.344 327.03,216.011 323.5,215.5C 322.901,221.048 320.401,222.382 316,219.5C 315.313,217.432 315.48,215.432 316.5,213.5C 314.267,212.258 312.101,210.924 310,209.5C 309.69,204.471 312.023,202.804 317,204.5C 318.876,203.381 319.709,201.714 319.5,199.5C 320.791,199.737 321.791,199.404 322.5,198.5 Z"/></g>
<g><path style="opacity:1" fill="#e6e6e6" d="M 288.5,210.5 C 289.833,210.5 291.167,210.5 292.5,210.5C 292.313,208.436 291.813,206.436 291,204.5C 290.617,205.056 290.117,205.389 289.5,205.5C 289.415,204.005 290.081,203.005 291.5,202.5C 292.932,205.327 293.599,208.327 293.5,211.5C 291.585,211.784 289.919,211.451 288.5,210.5 Z"/></g>
<g><path style="opacity:1" fill="#fbfbfb" d="M 288.5,210.5 C 287.624,210.631 286.957,210.298 286.5,209.5C 287.035,207.739 288.035,206.406 289.5,205.5C 290.117,205.389 290.617,205.056 291,204.5C 291.813,206.436 292.313,208.436 292.5,210.5C 291.167,210.5 289.833,210.5 288.5,210.5 Z"/></g>
<g><path style="opacity:1" fill="#dfdfdf" d="M 467.5,208.5 C 465.5,208.833 463.5,209.167 461.5,209.5C 462.134,208.053 463.301,207.387 465,207.5C 466.07,207.528 466.903,207.861 467.5,208.5 Z"/></g>
<g><path style="opacity:1" fill="#e6e6e6" d="M 428.5,214.5 C 428.423,215.75 427.756,216.583 426.5,217C 424.934,217.765 423.601,217.598 422.5,216.5C 424.703,216.396 426.703,215.73 428.5,214.5 Z"/></g>
<g><path style="opacity:1" fill="#fcfcfc" d="M 466.5,216.5 C 469.694,217.758 473.027,218.424 476.5,218.5C 472.298,235.24 467.798,251.907 463,268.5C 462.612,269.428 461.945,270.095 461,270.5C 458.209,269.594 455.376,268.927 452.5,268.5C 452.462,265.193 453.128,262.026 454.5,259C 453.202,255.795 450.868,254.795 447.5,256C 446.367,259.421 444.867,262.587 443,265.5C 440.361,264.006 437.528,263.339 434.5,263.5C 437.381,249.035 441.381,235.035 446.5,221.5C 449.848,222.085 452.848,223.418 455.5,225.5C 453.913,232.013 452.247,238.513 450.5,245C 451.138,248.293 453.138,249.293 456.5,248C 457.46,246.581 458.293,245.081 459,243.5C 461.186,234.397 463.686,225.397 466.5,216.5 Z"/></g>
<g><path style="opacity:1" fill="#c0c0c0" d="M 207.5,237.5 C 212.006,236.527 214.172,238.194 214,242.5C 208.154,244.571 202.488,247.238 197,250.5C 192.161,267.682 187.327,284.849 182.5,302C 182.645,302.772 182.978,303.439 183.5,304C 185.218,304.346 186.885,304.846 188.5,305.5C 190.126,302.002 191.293,298.335 192,294.5C 194.864,291.674 197.031,292.174 198.5,296C 197.115,299.038 196.115,302.204 195.5,305.5C 197.026,308.092 199.359,309.092 202.5,308.5C 206.927,290.96 211.594,273.46 216.5,256C 216.054,254.274 215.221,252.774 214,251.5C 213,246.833 214.667,245.5 219,247.5C 221.281,250.063 222.448,253.063 222.5,256.5C 220.711,263.87 218.711,271.204 216.5,278.5C 221.334,280.626 226.334,282.293 231.5,283.5C 232.363,281.229 232.363,278.895 231.5,276.5C 229.073,276.477 226.74,275.977 224.5,275C 222.59,274.592 221.59,273.425 221.5,271.5C 221.434,269.734 222.268,268.734 224,268.5C 228.947,269.309 233.281,271.309 237,274.5C 237.595,278.715 238.429,282.881 239.5,287C 237.056,297.275 234.223,307.442 231,317.5C 229.833,318.667 228.667,319.833 227.5,321C 223.087,321.151 218.754,320.484 214.5,319C 194.451,313.76 174.618,307.927 155,301.5C 153.004,292.954 154.171,284.788 158.5,277C 161.237,275.92 162.904,276.754 163.5,279.5C 162.333,283.5 161.167,287.5 160,291.5C 159.192,293.579 159.359,295.579 160.5,297.5C 165.21,298.708 169.876,300.041 174.5,301.5C 175.647,301.182 176.481,300.516 177,299.5C 178.94,291.904 181.106,284.404 183.5,277C 176.167,274.667 168.833,272.333 161.5,270C 160.282,267.555 160.782,265.388 163,263.5C 165.5,261 168,258.5 170.5,256C 176.2,255.34 181.7,256.173 187,258.5C 187.945,258.095 188.612,257.428 189,256.5C 189.692,253.064 190.692,249.73 192,246.5C 197.117,243.173 202.283,240.173 207.5,237.5 Z"/></g>
<g><path style="opacity:1" fill="#e6e6e6" d="M 279.5,238.5 C 278.688,239.993 277.355,240.66 275.5,240.5C 274.274,240.48 273.274,240.147 272.5,239.5C 274.903,239.552 277.236,239.219 279.5,238.5 Z"/></g>
<g><path style="opacity:1" fill="#c0c0c0" d="M 41.5,253.5 C 40.7261,252.853 39.7261,252.52 38.5,252.5C 36.6455,252.34 35.3121,253.007 34.5,254.5C 30.7597,257.599 29.593,261.599 31,266.5C 31.7845,268.286 32.9512,269.786 34.5,271C 55.5207,276.516 76.5207,282.016 97.5,287.5C 98.4917,283.596 99.4917,279.596 100.5,275.5C 100.877,273.742 101.544,272.075 102.5,270.5C 102,270.167 101.5,269.833 101,269.5C 87.2493,265.416 73.416,261.582 59.5,258C 56.3741,254.736 56.8741,252.569 61,251.5C 76.8647,255.514 92.698,259.68 108.5,264C 110.41,264.408 111.41,265.575 111.5,267.5C 109.467,271.009 107.8,274.676 106.5,278.5C 104.431,282.044 104.098,285.71 105.5,289.5C 108.581,289.789 110.581,291.456 111.5,294.5C 109.47,298.041 107.637,301.708 106,305.5C 105.667,309.833 105.333,314.167 105,318.5C 104.044,319.894 102.711,320.561 101,320.5C 93.9649,316.647 89.6316,318.647 88,326.5C 87.8275,330.871 87.3275,335.204 86.5,339.5C 85.7065,339.931 84.8732,340.265 84,340.5C 69.8673,336.516 55.7007,332.682 41.5,329C 37.3428,326.156 37.5094,323.656 42,321.5C 54.4695,325.026 66.9695,328.359 79.5,331.5C 79.56,332.043 79.8933,332.376 80.5,332.5C 81.4742,330.257 81.8076,327.924 81.5,325.5C 81.8954,322.314 82.8954,319.314 84.5,316.5C 76.8933,314.181 69.2267,312.014 61.5,310C 58.5885,306.813 59.0885,304.313 63,302.5C 74.4704,305.895 85.9704,309.228 97.5,312.5C 98.4287,311.311 98.762,309.978 98.5,308.5C 100.585,306.316 101.585,303.649 101.5,300.5C 102.413,298.914 102.413,297.414 101.5,296C 75.1565,289.159 48.8231,282.325 22.5,275.5C 13.5269,278.505 12.1936,283.671 18.5,291C 22.8801,292.107 27.2134,293.274 31.5,294.5C 31.0391,289.303 33.2058,285.969 38,284.5C 43.1667,285.667 48.3333,286.833 53.5,288C 56.4417,288.94 57.7751,290.94 57.5,294C 57.1453,301.45 54.812,308.116 50.5,314C 47.0528,315.109 44.3862,314.109 42.5,311C 38.8333,310.667 35.1667,310.333 31.5,310C 28.7728,307.759 28.1062,305.093 29.5,302C 23.8586,298.284 18.692,298.784 14,303.5C 12.703,308.117 13.8697,311.95 17.5,315C 21.5,316.333 25.5,317.667 29.5,319C 30.3802,320.356 30.7135,321.856 30.5,323.5C 14.2489,325.744 6.41557,318.744 7,302.5C 8.24774,299.421 10.0811,296.754 12.5,294.5C 3.68255,280.627 7.34921,271.961 23.5,268.5C 22.9984,248.755 31.9984,242.255 50.5,249C 51.3802,250.356 51.7135,251.856 51.5,253.5C 48.1475,254.707 44.8142,254.707 41.5,253.5 Z"/></g>
<g><path style="opacity:1" fill="#dfdfdf" d="M 41.5,253.5 C 39.0971,253.448 36.7638,253.781 34.5,254.5C 35.3121,253.007 36.6455,252.34 38.5,252.5C 39.7261,252.52 40.7261,252.853 41.5,253.5 Z"/></g>
<g><path style="opacity:1" fill="#c4c4c4" d="M 203.5,255.5 C 208.631,255.606 209.797,257.939 207,262.5C 204.218,264.011 202.385,263.178 201.5,260C 202.044,258.415 202.711,256.915 203.5,255.5 Z"/></g>
<g><path style="opacity:1" fill="#fbfbfb" d="M 172.5,261.5 C 177.486,261.83 182.153,263.163 186.5,265.5C 185.985,267.225 185.318,268.892 184.5,270.5C 179.334,269.293 174.334,267.626 169.5,265.5C 171.288,264.717 172.288,263.384 172.5,261.5 Z"/></g>
<g><path style="opacity:1" fill="#f5f5f5" d="M 473.5,260.5 C 474.485,264.634 474.818,268.968 474.5,273.5C 473.167,273.5 471.833,273.5 470.5,273.5C 470.718,268.962 471.718,264.629 473.5,260.5 Z"/></g>
<g><path style="opacity:1" fill="#c5c5c5" d="M 200.5,267.5 C 205.678,268.191 206.678,270.691 203.5,275C 201.567,275.783 200.067,275.283 199,273.5C 198.252,271.16 198.752,269.16 200.5,267.5 Z"/></g>
<g><path style="opacity:1" fill="#e4e4e4" d="M 481.5,241.5 C 482.333,252.822 482.999,264.155 483.5,275.5C 485.167,275.5 486.833,275.5 488.5,275.5C 486.735,276.461 484.735,276.795 482.5,276.5C 482.068,266.154 481.401,255.82 480.5,245.5C 480.511,243.955 480.844,242.622 481.5,241.5 Z"/></g>
<g><path style="opacity:1" fill="#c3c3c3" d="M 196.5,279.5 C 201.068,279.083 202.568,281.083 201,285.5C 199.604,287.527 197.938,287.86 196,286.5C 195.297,284.071 195.463,281.738 196.5,279.5 Z"/></g>
<g><path style="opacity:1" fill="#dfdfdf" d="M 100.5,275.5 C 99.4917,279.596 98.4917,283.596 97.5,287.5C 97.0339,283.018 98.0339,279.018 100.5,275.5 Z"/></g>
<g><path style="opacity:1" fill="#c1c1c1" d="M 168.5,281.5 C 170.167,281.5 171.833,281.5 173.5,281.5C 173.579,284.271 173.079,286.937 172,289.5C 169.175,291.006 167.342,290.173 166.5,287C 167.077,285.1 167.744,283.267 168.5,281.5 Z"/></g>
<g><path style="opacity:1" fill="#c0c0c0" d="M 365.5,317.5 C 366.043,317.44 366.376,317.107 366.5,316.5C 364.027,315.203 361.693,315.203 359.5,316.5C 358.833,316.5 358.167,316.5 357.5,316.5C 353.575,316.43 349.909,317.097 346.5,318.5C 341.4,318.429 336.4,319.096 331.5,320.5C 328.436,330.858 325.27,341.191 322,351.5C 320.333,352.833 318.667,352.833 317,351.5C 318.471,340.236 321.304,329.236 325.5,318.5C 318.48,312.312 311.313,306.312 304,300.5C 303.602,295.355 305.769,294.188 310.5,297C 316.815,303.477 323.815,308.977 331.5,313.5C 341.85,312.081 352.183,310.581 362.5,309C 354.204,302.373 346.204,295.373 338.5,288C 334.889,287.87 331.389,287.703 328,287.5C 327.421,282.165 329.921,280.165 335.5,281.5C 337.5,281.667 339.5,281.833 341.5,282C 351.667,290.833 361.833,299.667 372,308.5C 373.939,314.067 373.272,319.401 370,324.5C 368.506,325.747 367.006,325.747 365.5,324.5C 364.328,322.177 364.328,319.844 365.5,317.5 Z"/></g>
<g><path style="opacity:1" fill="#d9d9d9" d="M 106.5,278.5 C 106.276,282.179 105.942,285.846 105.5,289.5C 104.098,285.71 104.431,282.044 106.5,278.5 Z"/></g>
<g><path style="opacity:1" fill="#e2e2e2" d="M 416.5,278.5 C 418.256,284.251 416.256,285.918 410.5,283.5C 414.938,284.575 416.938,282.908 416.5,278.5 Z"/></g>
<g><path style="opacity:1" fill="#c1c1c1" d="M 313.5,283.5 C 316.187,283.336 318.854,283.503 321.5,284C 322.554,285.388 322.72,286.888 322,288.5C 314.333,290.167 306.667,291.833 299,293.5C 294.563,307.047 290.896,320.714 288,334.5C 297.167,342.333 306.333,350.167 315.5,358C 328.531,357.247 341.531,355.913 354.5,354C 356.92,346.493 359.42,338.993 362,331.5C 363.388,330.446 364.888,330.28 366.5,331C 367.591,333.064 367.758,335.231 367,337.5C 364.802,343.761 362.802,350.095 361,356.5C 360.167,357.333 359.333,358.167 358.5,359C 346.614,361.487 334.614,363.487 322.5,365C 319.5,365.667 316.5,365.667 313.5,365C 302.719,356.187 292.219,347.02 282,337.5C 280.627,335.305 280.294,332.971 281,330.5C 285.135,316.428 289.469,302.428 294,288.5C 295.255,287.789 296.421,286.956 297.5,286C 303.025,285.48 308.358,284.647 313.5,283.5 Z"/></g>
<g><path style="opacity:1" fill="#fcfcfc" d="M 214.5,285.5 C 220.506,286.835 226.506,288.168 232.5,289.5C 230.445,298.396 227.778,307.062 224.5,315.5C 219.231,313.85 213.898,312.516 208.5,311.5C 210.183,302.767 212.183,294.1 214.5,285.5 Z"/></g>
<g><path style="opacity:1" fill="#c2c2c2" d="M 337.5,297.5 C 335.883,296.028 333.883,295.361 331.5,295.5C 329.955,295.511 328.622,295.844 327.5,296.5C 324.924,296.722 324.09,298.055 325,300.5C 328.473,303.257 331.973,305.924 335.5,308.5C 329.037,308.863 323.537,306.529 319,301.5C 316.428,297.338 317.262,294.172 321.5,292C 333.194,290.342 343.027,293.842 351,302.5C 351.49,303.793 351.657,305.127 351.5,306.5C 346.273,307.763 343.44,305.763 343,300.5C 341.512,298.84 339.679,297.84 337.5,297.5 Z"/></g>
<g><path style="opacity:1" fill="#fafafa" d="M 38.5,291.5 C 42.6534,292.461 46.6534,293.794 50.5,295.5C 49.8942,299.028 48.7275,302.361 47,305.5C 44.0899,302.571 40.7566,301.905 37,303.5C 37.2907,299.527 37.7907,295.527 38.5,291.5 Z"/></g>
<g><path style="opacity:1" fill="#c1c1c1" d="M 219.5,295.5 C 221.167,295.5 222.833,295.5 224.5,295.5C 224.492,298.545 224.159,301.545 223.5,304.5C 221.533,304.739 219.699,304.406 218,303.5C 217.955,300.78 218.455,298.114 219.5,295.5 Z"/></g>
<g><path style="opacity:1" fill="#e4e4e4" d="M 327.5,296.5 C 328.622,295.844 329.955,295.511 331.5,295.5C 333.883,295.361 335.883,296.028 337.5,297.5C 334.214,296.793 330.881,296.46 327.5,296.5 Z"/></g>
<g><path style="opacity:1" fill="#d6d6d6" d="M 101.5,300.5 C 101.585,303.649 100.585,306.316 98.5,308.5C 98.4152,305.351 99.4152,302.684 101.5,300.5 Z"/></g>
<g><path style="opacity:1" fill="#c0c0c0" d="M 306.5,310.5 C 308.39,310.297 309.89,310.963 311,312.5C 311.5,324.162 311.667,335.829 311.5,347.5C 310.178,347.67 309.011,347.337 308,346.5C 307.04,344.02 306.207,341.52 305.5,339C 303.208,337.71 301.208,336.043 299.5,334C 297.5,334 295.5,334 293.5,334C 292.57,332.806 291.903,331.473 291.5,330C 296.634,323.548 301.634,317.048 306.5,310.5 Z"/></g>
<g><path style="opacity:1" fill="#dadada" d="M 359.5,316.5 C 361.693,315.203 364.027,315.203 366.5,316.5C 366.376,317.107 366.043,317.44 365.5,317.5C 363.735,316.539 361.735,316.205 359.5,316.5 Z"/></g>
<g><path style="opacity:1" fill="#e6e6e6" d="M 357.5,316.5 C 354.091,317.903 350.425,318.57 346.5,318.5C 349.909,317.097 353.575,316.43 357.5,316.5 Z"/></g>
<g><path style="opacity:1" fill="#c0c0c0" d="M 347.5,321.5 C 357.956,321.645 360.289,326.145 354.5,335C 356.034,343.251 352.7,348.584 344.5,351C 339.511,351.499 334.511,351.666 329.5,351.5C 331.687,342.751 334.187,334.084 337,325.5C 337.833,324.667 338.667,323.833 339.5,323C 342.365,322.817 345.031,322.317 347.5,321.5 Z"/></g>
<g><path style="opacity:1" fill="#f6f6f6" d="M 304.5,323.5 C 305.748,324.334 306.415,325.667 306.5,327.5C 306.494,332.122 305.161,332.289 302.5,328C 303.414,326.594 304.08,325.094 304.5,323.5 Z"/></g>
<g><path style="opacity:1" fill="#dadada" d="M 81.5,325.5 C 81.8076,327.924 81.4742,330.257 80.5,332.5C 79.8933,332.376 79.56,332.043 79.5,331.5C 80.1667,329.5 80.8333,327.5 81.5,325.5 Z"/></g>
<g><path style="opacity:1" fill="#f9f9f9" d="M 343.5,328.5 C 345.833,328.5 348.167,328.5 350.5,328.5C 350.436,332.062 348.603,333.729 345,333.5C 343.833,333.167 342.667,332.833 341.5,332.5C 342.18,331.14 342.847,329.807 343.5,328.5 Z"/></g>
<g><path style="opacity:1" fill="#f6f6f6" d="M 339.5,339.5 C 342.187,339.336 344.854,339.503 347.5,340C 348.412,342.488 347.412,344.155 344.5,345C 342.527,345.495 340.527,345.662 338.5,345.5C 338.517,343.435 338.85,341.435 339.5,339.5 Z"/></g>
</svg>
